<svg width="458" height="509" viewBox="0 0 458 509" fill="none" xmlns="http://www.w3.org/2000/svg">
<path d="M379.413 508.994V507.838C416.76 507.838 435.872 477.635 437.826 449.571C439.243 429.201 437.092 408.482 435.011 388.446C434.382 382.394 433.732 376.136 433.192 369.984C430.845 343.167 430.344 316.178 431.692 289.269C433.022 262.483 436.207 235.862 441.215 209.664C442.663 202.125 444.292 194.364 445.867 186.859C453.986 148.187 462.38 108.199 452.564 71.2739C440.003 23.9934 401.872 2.00395 369.655 1.18692C368.824 1.16612 367.991 1.15571 367.161 1.15571C339.555 1.15571 312.379 12.6312 286.069 23.7403C280.571 26.0643 274.874 28.4668 269.284 30.7203C254.537 36.6638 239.435 41.9531 224.403 46.4439C209.389 50.9278 194.065 54.7263 178.858 57.7344C163.65 60.7426 148.178 63.0354 132.877 64.5527C117.547 66.0678 102.001 66.8397 86.6693 66.8455C84.7831 66.8455 82.8599 66.8362 81.0007 66.8258C65.0673 66.7426 48.5922 66.656 33.2306 73.1449C24.3424 76.7765 16.5302 83.2544 10.705 91.8234C4.26572 101.498 1.00109 113.28 1.00109 126.839H0.00150938C-0.0422269 120.051 0.864798 113.3 2.68739 106.847C4.32024 101.173 6.76224 95.855 9.91236 91.1127C15.851 82.3674 23.8179 75.7543 32.8838 72.0447C40.5719 68.9256 48.5869 67.0122 56.7148 66.3555C64.7714 65.5697 73.022 65.6124 81.0047 65.6552C82.8629 65.6644 84.7841 65.6748 86.6683 65.6748C148.753 65.5653 210.378 53.3765 268.963 29.619C274.549 27.3678 280.235 24.9664 285.735 22.6447C299.295 16.9186 313.319 10.9983 327.273 6.70624C334.202 4.53662 341.236 2.83874 348.337 1.62141C355.402 0.403589 362.544 -0.129863 369.686 0.0266297C387.642 0.535017 405.096 6.97698 419.985 18.5908C436.035 31.0639 447.878 49.5494 453.52 70.9353C463.416 108.163 454.984 148.309 446.835 187.132C445.26 194.632 443.636 202.387 442.187 209.914C432.236 262.41 429.534 316.395 434.181 369.867C434.722 376.009 435.371 382.261 435.998 388.309C437.041 398.344 438.118 408.721 438.736 418.943C439.429 429.167 439.456 439.436 438.817 449.665C438.294 456.77 436.764 463.727 434.288 470.258C431.619 477.363 427.854 483.847 423.179 489.395C418.025 495.483 411.847 500.285 405.026 503.506C396.882 507.257 388.179 509.121 379.413 508.994Z" fill="black"/>
</svg>
